<svg width="178" height="51" viewBox="0 0 178 51" fill="none" xmlns="http://www.w3.org/2000/svg">
<path d="M95.9253 26.0992C95.7673 24.8944 95.3624 23.8081 94.7106 22.8403C93.7625 21.5367 92.2911 20.8849 90.2962 20.8849C87.452 20.8849 85.5065 22.2971 84.4596 25.1216C83.9066 26.6227 83.6301 28.6175 83.6301 31.1062C83.6301 33.4764 83.9066 35.3824 84.4596 36.8242C85.467 39.5104 87.3631 40.8535 90.148 40.8535C92.1232 40.8535 93.5255 40.3202 94.3551 39.2537C95.1846 38.1871 95.6883 36.8045 95.8661 35.1059H104.488C104.29 37.6736 103.362 40.103 101.703 42.3941C99.0559 46.0877 95.1353 47.9344 89.9407 47.9344C84.746 47.9344 80.9241 46.3938 78.475 43.3126C76.0258 40.2314 74.8012 36.2317 74.8012 31.3136C74.8012 25.7635 76.1542 21.4478 78.8601 18.3666C81.5661 15.2854 85.2991 13.7448 90.0592 13.7448C94.1082 13.7448 97.4165 14.6533 99.9842 16.4704C102.572 18.2876 104.102 21.4972 104.576 26.0992H95.9253Z" fill="white"/>
<g filter="url(#filter0_f)">
<path d="M118.827 14.3176V33.7825C118.827 35.6194 119.044 37.002 119.479 37.9303C120.249 39.5697 121.76 40.3894 124.012 40.3894C126.895 40.3894 128.871 39.224 129.937 36.8934C130.49 35.6293 130.767 33.9603 130.767 31.8864V14.3176H139.329V46.6111H131.122V42.0485C131.043 42.1473 130.846 42.4435 130.53 42.9373C130.214 43.4311 129.838 43.8656 129.404 44.2409C128.081 45.426 126.797 46.2358 125.552 46.6703C124.328 47.1049 122.886 47.3221 121.227 47.3221C116.447 47.3221 113.227 45.6037 111.568 42.167C110.64 40.2709 110.176 37.4761 110.176 33.7825V14.3176H118.827Z" fill="white"/>
</g>
<g filter="url(#filter1_f)">
<path d="M154.083 36.3008C154.261 37.8019 154.646 38.8685 155.239 39.5006C156.286 40.6264 158.221 41.1893 161.046 41.1893C162.705 41.1893 164.018 40.9424 164.986 40.4486C165.974 39.9548 166.467 39.2142 166.467 38.2266C166.467 37.2785 166.072 36.5576 165.282 36.0638C164.492 35.57 161.559 34.7207 156.483 33.5159C152.829 32.6073 150.252 31.4716 148.75 30.1088C147.249 28.7657 146.499 26.8301 146.499 24.3019C146.499 21.3194 147.664 18.7616 149.995 16.6285C152.345 14.4756 155.644 13.3991 159.89 13.3991C163.919 13.3991 167.198 14.2089 169.726 15.8285C172.274 17.4284 173.736 20.2035 174.111 24.1537H165.667C165.549 23.0674 165.243 22.2082 164.749 21.5762C163.821 20.4306 162.241 19.8578 160.009 19.8578C158.172 19.8578 156.858 20.1442 156.068 20.717C155.298 21.2898 154.913 21.9613 154.913 22.7316C154.913 23.6995 155.328 24.4006 156.157 24.8352C156.987 25.2894 159.92 26.0696 164.956 27.1757C168.314 27.9658 170.832 29.1607 172.511 30.7606C174.17 32.3802 175 34.4047 175 36.8341C175 40.0339 173.805 42.6509 171.415 44.6853C169.045 46.6999 165.371 47.7073 160.394 47.7073C155.318 47.7073 151.565 46.6407 149.136 44.5075C146.726 42.3546 145.521 39.6191 145.521 36.3008H154.083Z" fill="white"/>
</g>
<g filter="url(#filter2_f)">
<path d="M54.0326 40.656C56.5015 40.656 58.3977 39.7771 59.721 38.0192C61.0443 36.2614 61.706 33.7628 61.706 30.5236C61.706 27.2843 61.0443 24.7957 59.721 23.0575C58.3977 21.2997 56.5015 20.4207 54.0326 20.4207C51.5637 20.4207 49.6577 21.2997 48.3146 23.0575C46.9912 24.7957 46.3296 27.2843 46.3296 30.5236C46.3296 33.7628 46.9912 36.2614 48.3146 38.0192C49.6577 39.7771 51.5637 40.656 54.0326 40.656ZM70.5645 30.5236C70.5645 35.2639 69.2017 39.3228 66.476 42.7003C63.7503 46.058 59.6124 47.7369 54.0622 47.7369C48.5121 47.7369 44.3742 46.058 41.6485 42.7003C38.9228 39.3228 37.5599 35.2639 37.5599 30.5236C37.5599 25.8622 38.9228 21.8231 41.6485 18.4061C44.3742 14.9891 48.5121 13.2806 54.0622 13.2806C59.6124 13.2806 63.7503 14.9891 66.476 18.4061C69.2017 21.8231 70.5645 25.8622 70.5645 30.5236Z" fill="white"/>
</g>
<g filter="url(#filter3_f)">
<path d="M3.1333 3H34.0936V10.6734H12.1992V20.717H31.3679V28.3015H12.1992V46.6111H3.1333V3Z" fill="white"/>
</g>
<defs>
<filter id="filter0_f" x="108.176" y="12.3176" width="33.1531" height="37.0046" filterUnits="userSpaceOnUse" color-interpolation-filters="sRGB">
<feFlood flood-opacity="0" result="BackgroundImageFix"/>
<feBlend mode="normal" in="SourceGraphic" in2="BackgroundImageFix" result="shape"/>
<feGaussianBlur stdDeviation="1" result="effect1_foregroundBlur"/>
</filter>
<filter id="filter1_f" x="142.521" y="10.3991" width="35.479" height="40.3082" filterUnits="userSpaceOnUse" color-interpolation-filters="sRGB">
<feFlood flood-opacity="0" result="BackgroundImageFix"/>
<feBlend mode="normal" in="SourceGraphic" in2="BackgroundImageFix" result="shape"/>
<feGaussianBlur stdDeviation="1.5" result="effect1_foregroundBlur"/>
</filter>
<filter id="filter2_f" x="36.5599" y="12.2806" width="35.0046" height="36.4563" filterUnits="userSpaceOnUse" color-interpolation-filters="sRGB">
<feFlood flood-opacity="0" result="BackgroundImageFix"/>
<feBlend mode="normal" in="SourceGraphic" in2="BackgroundImageFix" result="shape"/>
<feGaussianBlur stdDeviation="0.5" result="effect1_foregroundBlur"/>
</filter>
<filter id="filter3_f" x="0.133301" y="0" width="36.9603" height="49.6111" filterUnits="userSpaceOnUse" color-interpolation-filters="sRGB">
<feFlood flood-opacity="0" result="BackgroundImageFix"/>
<feBlend mode="normal" in="SourceGraphic" in2="BackgroundImageFix" result="shape"/>
<feGaussianBlur stdDeviation="1.5" result="effect1_foregroundBlur"/>
</filter>
</defs>
</svg>
